<?xml version="1.0" encoding="UTF-8" standalone="no"?>
<svg
   width="1920"
   height="1080"
   viewBox="0 0 507.99997 285.75003"
   version="1.1"
   id="svg8"
   inkscape:version="1.4.1 (93de688d07, 2025-03-30)"
   sodipodi:docname="default.svg"
   xml:space="preserve"
   xmlns:inkscape="http://www.inkscape.org/namespaces/inkscape"
   xmlns:sodipodi="http://sodipodi.sourceforge.net/DTD/sodipodi-0.dtd"
   xmlns="http://www.w3.org/2000/svg"
   xmlns:svg="http://www.w3.org/2000/svg"
   xmlns:rdf="http://www.w3.org/1999/02/22-rdf-syntax-ns#"
   xmlns:cc="http://creativecommons.org/ns#"
   xmlns:dc="http://purl.org/dc/elements/1.1/"><title
     id="title1">Слайды шаблон</title><defs
     id="defs2"><rect
       x="180.81599"
       y="406"
       width="873.18402"
       height="342"
       id="rect6" /><filter
       style="color-interpolation-filters:sRGB"
       inkscape:label="Greyscale"
       id="filter1"
       x="0"
       y="0"
       width="1"
       height="1"><feColorMatrix
         values="0.21 0.64 0.072 2.77556e-17 0 0.21 0.64 0.072 2.77556e-17 0 0.21 0.64 0.072 2.77556e-17 0 0 0 0 1 0 "
         id="feColorMatrix1" /></filter><filter
       style="color-interpolation-filters:sRGB"
       inkscape:label="Noise Fill"
       id="filter133"
       x="0"
       y="0"
       width="1"
       height="1"><feTurbulence
         type="turbulence"
         baseFrequency="15.2381 15.7205"
         numOctaves="1"
         seed="15"
         result="turbulence"
         id="feTurbulence132" /><feComposite
         in="SourceGraphic"
         in2="turbulence"
         operator="out"
         result="composite1"
         id="feComposite132" /><feColorMatrix
         values="1 0 0 0 0 0 1 0 0 0 0 0 1 0 0 0 0 0 2.04 -1.30793 "
         result="color"
         id="feColorMatrix132" /><feFlood
         flood-opacity="1"
         flood-color="rgb(214,214,214)"
         result="flood"
         id="feFlood132" /><feMerge
         result="merge"
         id="feMerge133"><feMergeNode
           in="flood"
           id="feMergeNode132" /><feMergeNode
           in="color"
           id="feMergeNode133" /></feMerge><feComposite
         in2="SourceGraphic"
         operator="in"
         result="composite2"
         id="feComposite133" /></filter><filter
       style="color-interpolation-filters:sRGB"
       inkscape:label="Noise Fill"
       id="filter135"
       x="0"
       y="0"
       width="1"
       height="1"><feTurbulence
         type="turbulence"
         baseFrequency="15.2381 15.7205"
         numOctaves="1"
         seed="15"
         result="turbulence"
         id="feTurbulence133" /><feComposite
         in="SourceGraphic"
         in2="turbulence"
         operator="out"
         result="composite1"
         id="feComposite134" /><feColorMatrix
         values="1 0 0 0 0 0 1 0 0 0 0 0 1 0 0 0 0 0 2.04 -1.30793 "
         result="color"
         id="feColorMatrix134" /><feFlood
         flood-opacity="1"
         flood-color="rgb(69,69,69)"
         result="flood"
         id="feFlood134" /><feMerge
         result="merge"
         id="feMerge135"><feMergeNode
           in="flood"
           id="feMergeNode134" /><feMergeNode
           in="color"
           id="feMergeNode135" /></feMerge><feComposite
         in2="SourceGraphic"
         operator="in"
         result="composite2"
         id="feComposite135" /></filter></defs><sodipodi:namedview
     id="base"
     pagecolor="#ffffff"
     bordercolor="#666666"
     borderopacity="1.0"
     inkscape:pageopacity="1"
     inkscape:pageshadow="2"
     inkscape:zoom="0.5"
     inkscape:cx="615"
     inkscape:cy="810"
     inkscape:document-units="px"
     inkscape:current-layer="layer2"
     showgrid="true"
     showborder="true"
     units="px"
     inkscape:window-width="1920"
     inkscape:window-height="1014"
     inkscape:window-x="0"
     inkscape:window-y="0"
     inkscape:window-maximized="1"
     inkscape:document-rotation="0"
     inkscape:pagecheckerboard="0"
     inkscape:snap-others="true"
     inkscape:showpageshadow="2"
     inkscape:deskcolor="#d1d1d1"
     showguides="true"><inkscape:grid
       type="modular"
       id="grid1"
       units="px"
       originx="0"
       originy="0"
       spacingx="37.041668"
       spacingy="17.727084"
       empcolor="#0047cb"
       empopacity="0.30196078"
       color="#0099e5"
       opacity="0.14901961"
       empspacing="0"
       marginx="0"
       marginy="0"
       gapx="5.2916663"
       gapy="6.0854172"
       enabled="true"
       visible="true" /></sodipodi:namedview><metadata
     id="metadata5"><rdf:RDF><cc:Work
         rdf:about=""><dc:format>image/svg+xml</dc:format><dc:type
           rdf:resource="http://purl.org/dc/dcmitype/StillImage" /><dc:title>Слайды шаблон</dc:title></cc:Work></rdf:RDF></metadata><g
     inkscape:label="Background"
     inkscape:groupmode="layer"
     id="layer1-6"
     transform="matrix(0.98437495,0,0,0.98437495,0,-104.83591)"
     style="display:inline;fill:#ffffff;stroke-width:1.01587"
     sodipodi:insensitive="true"><rect
       style="display:inline;mix-blend-mode:normal;fill:#333333;stroke:none;stroke-width:0.266675;stroke-linecap:round;paint-order:stroke fill markers;filter:url(#filter135)"
       id="rect1"
       width="338.66669"
       height="435.42862"
       x="0"
       y="-3.0362196e-05"
       ry="0.1097242"
       inkscape:label="black rectangle"
       rx="0.048004333"
       transform="matrix(1.5238095,0,0,0.66666661,0,106.5)" /><rect
       style="display:inline;mix-blend-mode:normal;fill:#ededed;stroke:none;stroke-width:0.266675;stroke-linecap:round;paint-order:stroke fill markers;filter:url(#filter133)"
       id="rect3-1"
       width="338.66669"
       height="435.42862"
       x="0"
       y="106.5"
       ry="0.1097242"
       inkscape:label="white rectangle"
       rx="0.048004333"
       transform="matrix(1.5238095,0,0,0.66666661,0,35.499999)" /><path
       style="font-weight:900;font-size:16.9359px;line-height:1.25;font-family:Montserrat;-inkscape-font-specification:'Montserrat Heavy';text-align:center;letter-spacing:0px;word-spacing:0px;text-anchor:middle;display:inline;fill:#333333;stroke-width:0.268782"
       d="m 51.075523,143.8838 q -1.159285,0 -2.152957,-0.35883 -0.979872,-0.37263 -1.711325,-1.04888 -0.717653,-0.67624 -1.117882,-1.60091 -0.400229,-0.92467 -0.400229,-2.04255 0,-1.11788 0.400229,-2.04256 0.400229,-0.92466 1.117882,-1.60091 0.731453,-0.67625 1.711325,-1.03507 0.993672,-0.37263 2.152957,-0.37263 1.421504,0 2.511783,0.49683 1.10408,0.49684 1.821733,1.43531 l -2.056351,1.83553 q -0.42783,-0.53823 -0.952269,-0.82806 -0.510637,-0.30362 -1.159284,-0.30362 -0.510637,0 -0.924667,0.16562 -0.414031,0.16561 -0.717653,0.48303 -0.289821,0.31742 -0.455433,0.77285 -0.165613,0.44164 -0.165613,0.99368 0,0.55203 0.165613,1.00747 0.165612,0.44164 0.455433,0.75905 0.303622,0.31743 0.717653,0.48304 0.41403,0.16561 0.924667,0.16561 0.648647,0 1.159284,-0.28981 0.524439,-0.30363 0.952269,-0.84187 l 2.056351,1.83553 q -0.717653,0.92468 -1.821733,1.43531 -1.090279,0.49684 -2.511783,0.49684 z m 8.736052,0 q -1.214488,0 -2.346171,-0.27602 -1.131682,-0.27603 -1.863135,-0.71766 l 1.048876,-2.37377 q 0.69005,0.40023 1.531912,0.64864 0.855662,0.23462 1.656121,0.23462 0.469234,0 0.731453,-0.0552 0.27602,-0.069 0.400229,-0.17941 0.124209,-0.12421 0.124209,-0.28982 0,-0.26222 -0.289821,-0.41403 -0.289821,-0.15181 -0.772856,-0.24842 -0.469235,-0.11041 -1.035076,-0.22082 -0.565841,-0.1242 -1.145483,-0.31742 -0.565841,-0.19322 -1.048877,-0.51064 -0.469234,-0.31742 -0.759055,-0.82805 -0.289821,-0.52445 -0.289821,-1.2973 0,-0.89706 0.496836,-1.62852 0.510638,-0.74525 1.50431,-1.18688 1.007473,-0.44164 2.497982,-0.44164 0.979871,0 1.932141,0.20702 0.952269,0.20702 1.711325,0.63484 l -0.979872,2.35998 q -0.717652,-0.35883 -1.393901,-0.53824 -0.662449,-0.17942 -1.297295,-0.17942 -0.469234,0 -0.745254,0.0828 -0.27602,0.0828 -0.400229,0.22081 -0.110409,0.13802 -0.110409,0.30363 0,0.24842 0.289821,0.40023 0.289821,0.13801 0.759056,0.23461 0.483035,0.0966 1.048876,0.20702 0.579643,0.11041 1.145484,0.30362 0.565841,0.19321 1.035075,0.51064 0.483036,0.31742 0.772857,0.82806 0.289821,0.51064 0.289821,1.26969 0,0.88326 -0.510638,1.62852 -0.496836,0.73145 -1.490508,1.18689 -0.993673,0.44163 -2.497983,0.44163 z m -0.855661,3.50545 0.662448,-2.00114 0.345025,1.00747 q -0.621045,0 -0.938469,-0.27602 -0.303622,-0.26222 -0.303622,-0.73145 0,-0.46924 0.331225,-0.75906 0.331223,-0.27602 0.910866,-0.27602 0.579642,0 0.910867,0.27602 0.331223,0.28982 0.331223,0.75906 0,0.19321 -0.06901,0.45542 -0.0552,0.27603 -0.27602,0.64865 l -0.53824,0.89707 z"
       id="text4-5-8"
       inkscape:label="CȘ"
       aria-label="CȘ" /><path
       style="font-weight:900;font-size:17.083px;line-height:1.25;font-family:Montserrat;-inkscape-font-specification:'Montserrat Heavy';text-align:center;letter-spacing:-5.35186px;word-spacing:0px;text-anchor:middle;display:none;fill:#333333;stroke-width:0.268781"
       d="m 52.996947,133.78146 h 3.796698 v 11.26139 h -3.796698 z m -3.507119,11.26139 H 45.69313 v -11.26139 h 3.796698 z m 3.764522,-4.15063 h -4.021925 v -3.12101 h 4.021925 z m 0.494109,4.15063 v -11.26139 h 3.121014 l 4.504557,7.35208 h -1.640946 l 4.375855,-7.35208 h 3.121014 l 0.03218,11.26139 h -3.458856 l -0.03218,-6.04898 h 0.546982 l -2.992312,5.03545 h -1.673121 l -3.121014,-5.03545 h 0.675683 v 6.04898 z"
       id="text1-2"
       inkscape:label="NM"
       aria-label="НМ" /></g><g
     inkscape:groupmode="layer"
     id="layer2"
     inkscape:label="Image" /><g
     inkscape:groupmode="layer"
     id="layer3-9"
     inkscape:label="Болванки"
     style="display:inline;mix-blend-mode:normal;stroke-width:1.01587"
     transform="matrix(0.98437495,0,0,0.98437495,0,2.9887786e-5)"
     sodipodi:insensitive="true"><rect
       style="display:inline;opacity:1;mix-blend-mode:lighten;fill:#333333;stroke:none;stroke-width:0.266675;stroke-linecap:round;paint-order:stroke fill markers;filter:url(#filter135)"
       id="rect135"
       width="338.66669"
       height="435.42862"
       x="0"
       y="-3.0362196e-05"
       ry="0.10972419"
       inkscape:label="black rectangle"
       rx="0.048004329"
       transform="matrix(1.5238095,0,0,0.66666664,0,-1.0120733e-5)" /><rect
       style="display:inline;mix-blend-mode:darken;fill:#ededed;stroke:none;stroke-width:0.266675;stroke-linecap:round;paint-order:stroke fill markers;filter:url(#filter133)"
       id="rect136"
       width="338.66669"
       height="435.42862"
       x="0"
       y="106.5"
       ry="0.10972419"
       inkscape:label="white rectangle"
       rx="0.048004329"
       transform="matrix(1.5238095,0,0,0.66666664,0,-71.000014)" /></g><inkscape:templateinfo><inkscape:name>horizontal</inkscape:name><inkscape:date>2025-04-11</inkscape:date></inkscape:templateinfo></svg>
