<?xml version="1.0" encoding="UTF-8" standalone="no"?>
<svg
   width="1260"
   height="1260"
   viewBox="0 0 333.37498 333.37503"
   version="1.1"
   id="svg8"
   inkscape:version="1.4.1 (93de688d07, 2025-03-30)"
   sodipodi:docname="default.svg"
   xml:space="preserve"
   xmlns:inkscape="http://www.inkscape.org/namespaces/inkscape"
   xmlns:sodipodi="http://sodipodi.sourceforge.net/DTD/sodipodi-0.dtd"
   xmlns="http://www.w3.org/2000/svg"
   xmlns:svg="http://www.w3.org/2000/svg"
   xmlns:rdf="http://www.w3.org/1999/02/22-rdf-syntax-ns#"
   xmlns:cc="http://creativecommons.org/ns#"
   xmlns:dc="http://purl.org/dc/elements/1.1/"><title
     id="title1">Слайды шаблон</title><defs
     id="defs2"><rect
       x="180.81599"
       y="406"
       width="873.18402"
       height="342"
       id="rect6" /><filter
       style="color-interpolation-filters:sRGB"
       inkscape:label="Greyscale"
       id="filter1"
       x="0"
       y="0"
       width="1"
       height="1"><feColorMatrix
         values="0.21 0.64 0.072 2.77556e-17 0 0.21 0.64 0.072 2.77556e-17 0 0.21 0.64 0.072 2.77556e-17 0 0 0 0 1 0 "
         id="feColorMatrix1" /></filter><filter
       style="color-interpolation-filters:sRGB"
       inkscape:label="Noise Fill"
       id="filter133"
       x="0"
       y="0"
       width="1"
       height="1"><feTurbulence
         type="turbulence"
         baseFrequency="15.2381 15.7205"
         numOctaves="1"
         seed="15"
         result="turbulence"
         id="feTurbulence132" /><feComposite
         in="SourceGraphic"
         in2="turbulence"
         operator="out"
         result="composite1"
         id="feComposite132" /><feColorMatrix
         values="1 0 0 0 0 0 1 0 0 0 0 0 1 0 0 0 0 0 2.04 -1.30793 "
         result="color"
         id="feColorMatrix132" /><feFlood
         flood-opacity="1"
         flood-color="rgb(214,214,214)"
         result="flood"
         id="feFlood132" /><feMerge
         result="merge"
         id="feMerge133"><feMergeNode
           in="flood"
           id="feMergeNode132" /><feMergeNode
           in="color"
           id="feMergeNode133" /></feMerge><feComposite
         in2="SourceGraphic"
         operator="in"
         result="composite2"
         id="feComposite133" /></filter><filter
       style="color-interpolation-filters:sRGB"
       inkscape:label="Noise Fill"
       id="filter135"
       x="0"
       y="0"
       width="1"
       height="1"><feTurbulence
         type="turbulence"
         baseFrequency="15.2381 15.7205"
         numOctaves="1"
         seed="15"
         result="turbulence"
         id="feTurbulence133" /><feComposite
         in="SourceGraphic"
         in2="turbulence"
         operator="out"
         result="composite1"
         id="feComposite134" /><feColorMatrix
         values="1 0 0 0 0 0 1 0 0 0 0 0 1 0 0 0 0 0 2.04 -1.30793 "
         result="color"
         id="feColorMatrix134" /><feFlood
         flood-opacity="1"
         flood-color="rgb(69,69,69)"
         result="flood"
         id="feFlood134" /><feMerge
         result="merge"
         id="feMerge135"><feMergeNode
           in="flood"
           id="feMergeNode134" /><feMergeNode
           in="color"
           id="feMergeNode135" /></feMerge><feComposite
         in2="SourceGraphic"
         operator="in"
         result="composite2"
         id="feComposite135" /></filter></defs><sodipodi:namedview
     id="base"
     pagecolor="#ffffff"
     bordercolor="#666666"
     borderopacity="1.0"
     inkscape:pageopacity="1"
     inkscape:pageshadow="2"
     inkscape:zoom="0.5"
     inkscape:cx="615"
     inkscape:cy="810"
     inkscape:document-units="px"
     inkscape:current-layer="layer2"
     showgrid="true"
     showborder="true"
     units="px"
     inkscape:window-width="1920"
     inkscape:window-height="1014"
     inkscape:window-x="0"
     inkscape:window-y="0"
     inkscape:window-maximized="1"
     inkscape:document-rotation="0"
     inkscape:pagecheckerboard="0"
     inkscape:snap-others="true"
     inkscape:showpageshadow="2"
     inkscape:deskcolor="#d1d1d1"
     showguides="true"><inkscape:grid
       type="modular"
       id="grid1"
       units="px"
       originx="0"
       originy="0"
       spacingx="22.489582"
       spacingy="22.489584"
       empcolor="#0047cb"
       empopacity="0.30196078"
       color="#0099e5"
       opacity="0.14901961"
       empspacing="0"
       marginx="0"
       marginy="0"
       gapx="5.291667"
       gapy="5.2916667"
       enabled="true"
       visible="true" /></sodipodi:namedview><metadata
     id="metadata5"><rdf:RDF><cc:Work
         rdf:about=""><dc:format>image/svg+xml</dc:format><dc:type
           rdf:resource="http://purl.org/dc/dcmitype/StillImage" /><dc:title>Слайды шаблон</dc:title></cc:Work></rdf:RDF></metadata><g
     inkscape:label="Background"
     inkscape:groupmode="layer"
     id="layer1-6"
     transform="matrix(0.98437495,0,0,0.98437495,0,-104.83591)"
     style="display:inline;fill:#ffffff;stroke-width:1.01587"
     sodipodi:insensitive="true"><rect
       style="display:inline;opacity:1;mix-blend-mode:normal;fill:#333333;stroke:none;stroke-width:0.268783;stroke-linecap:round;paint-order:stroke fill markers;filter:url(#filter135)"
       id="rect1"
       width="338.66669"
       height="435.42862"
       x="0"
       y="-3.0362196e-05"
       ry="0.073149458"
       inkscape:label="black rectangle"
       rx="0.073149458"
       transform="translate(0,106.50001)" /><rect
       style="display:inline;mix-blend-mode:normal;fill:#ededed;stroke:none;stroke-width:0.268783;stroke-linecap:round;paint-order:stroke fill markers;filter:url(#filter133)"
       id="rect3-1"
       width="338.66669"
       height="435.42862"
       x="0"
       y="106.5"
       ry="0.073149458"
       inkscape:label="white rectangle"
       rx="0.073149458" /><path
       style="font-weight:900;font-size:16.9359px;line-height:1.25;font-family:Montserrat;-inkscape-font-specification:'Montserrat Heavy';text-align:center;letter-spacing:0px;word-spacing:0px;text-anchor:middle;display:none;fill:#333333;stroke-width:0.268782"
       d="m 37.515059,149.80711 q -1.422616,0 -2.642,-0.44034 -1.202449,-0.45727 -2.100052,-1.28713 -0.880667,-0.82985 -1.371808,-1.96456 -0.491141,-1.1347 -0.491141,-2.50651 0,-1.37181 0.491141,-2.50652 0.491141,-1.1347 1.371808,-1.96456 0.897603,-0.82986 2.100052,-1.27019 1.219384,-0.45727 2.642,-0.45727 1.744398,0 3.082334,0.60969 1.354872,0.60969 2.235539,1.76133 l -2.52345,2.25248 q -0.525012,-0.6605 -1.168577,-1.01616 -0.626628,-0.37259 -1.422615,-0.37259 -0.626628,0 -1.134705,0.20324 -0.508077,0.20323 -0.880667,0.59275 -0.355654,0.38953 -0.558885,0.94841 -0.203231,0.54195 -0.203231,1.21939 0,0.67743 0.203231,1.23632 0.203231,0.54195 0.558885,0.93147 0.37259,0.38953 0.880667,0.59276 0.508077,0.20323 1.134705,0.20323 0.795987,0 1.422615,-0.35565 0.643565,-0.37259 1.168577,-1.03309 l 2.52345,2.25247 q -0.880667,1.13471 -2.235539,1.76133 -1.337936,0.6097 -3.082334,0.6097 z m 10.720444,0 q -1.490359,0 -2.879103,-0.33872 -1.388743,-0.33872 -2.286346,-0.88067 l 1.287128,-2.91297 q 0.846795,0.49114 1.879885,0.79598 1.050026,0.28791 2.032308,0.28791 0.575821,0 0.897603,-0.0677 0.338718,-0.0847 0.491141,-0.22017 0.152423,-0.15242 0.152423,-0.35565 0,-0.32178 -0.355654,-0.50808 -0.355654,-0.18629 -0.94841,-0.30484 -0.575821,-0.13549 -1.270193,-0.27098 -0.694372,-0.15242 -1.405679,-0.38952 -0.694372,-0.23711 -1.287129,-0.62663 -0.57582,-0.38953 -0.931474,-1.01615 -0.355654,-0.64357 -0.355654,-1.59198 0,-1.10083 0.609692,-1.99844 0.626629,-0.91453 1.846013,-1.45648 1.236321,-0.54195 3.065398,-0.54195 1.202449,0 2.371026,0.25404 1.168577,0.25404 2.100052,0.77905 l -1.202449,2.89604 q -0.880667,-0.44034 -1.710526,-0.6605 -0.812923,-0.22017 -1.591975,-0.22017 -0.57582,0 -0.914538,0.10162 -0.338718,0.10161 -0.491141,0.27097 -0.135488,0.16936 -0.135488,0.37259 0,0.30485 0.355654,0.49114 0.355654,0.16936 0.931475,0.28791 0.592756,0.11855 1.287128,0.25404 0.711308,0.13549 1.40568,0.37259 0.694372,0.2371 1.270192,0.62663 0.592757,0.38952 0.948411,1.01615 0.355654,0.62663 0.355654,1.5581 0,1.0839 -0.626629,1.99844 -0.609692,0.8976 -1.829077,1.45649 -1.219385,0.54195 -3.065398,0.54195 z m -1.050025,4.30172 0.812923,-2.45571 0.423397,1.23632 q -0.762115,0 -1.151641,-0.33872 -0.37259,-0.32178 -0.37259,-0.8976 0,-0.57582 0.406462,-0.93147 0.406461,-0.33872 1.117769,-0.33872 0.711308,0 1.11777,0.33872 0.406461,0.35565 0.406461,0.93147 0,0.2371 -0.08468,0.55888 -0.06774,0.33872 -0.338718,0.79599 l -0.6605,1.10084 z"
       id="text4-5-8"
       inkscape:label="CȘ"
       aria-label="CȘ" /><path
       style="font-weight:900;font-size:17.083px;line-height:1.25;font-family:Montserrat;-inkscape-font-specification:'Montserrat Heavy';text-align:center;letter-spacing:-5.35186px;word-spacing:0px;text-anchor:middle;display:inline;fill:#333333;stroke-width:0.268782"
       d="m 38.66574,137.41003 h 4.031588 v 11.9581 H 38.66574 Z m -3.724094,11.9581 h -4.031589 v -11.9581 h 4.031589 z m 3.997422,-4.40742 h -4.27075 v -3.3141 h 4.27075 z m 0.524678,4.40742 v -11.9581 h 3.314102 l 4.78324,7.80693 h -1.742466 l 4.646576,-7.80693 H 53.7793 l 0.03417,11.9581 h -3.672845 l -0.03417,-6.42321 h 0.580822 l -3.177438,5.34698 h -1.776632 l -3.314102,-5.34698 h 0.717486 v 6.42321 z"
       id="text1-2"
       inkscape:label="NM"
       aria-label="НМ" /></g><g
     inkscape:groupmode="layer"
     id="layer2"
     inkscape:label="Image" /><g
     inkscape:groupmode="layer"
     id="layer3-9"
     inkscape:label="Болванки"
     style="display:inline;mix-blend-mode:normal;stroke-width:1.01587"
     transform="matrix(0.98437495,0,0,0.98437495,0,2.9887786e-5)"
     sodipodi:insensitive="true"><rect
       style="display:inline;opacity:1;mix-blend-mode:lighten;fill:#333333;stroke:none;stroke-width:0.268783;stroke-linecap:round;paint-order:stroke fill markers;filter:url(#filter135)"
       id="rect135"
       width="338.66669"
       height="435.42862"
       x="0"
       y="-3.0362196e-05"
       ry="0.073149458"
       inkscape:label="black rectangle"
       rx="0.073149458" /><rect
       style="display:inline;mix-blend-mode:darken;fill:#ededed;stroke:none;stroke-width:0.268783;stroke-linecap:round;paint-order:stroke fill markers;filter:url(#filter133)"
       id="rect136"
       width="338.66669"
       height="435.42862"
       x="0"
       y="106.5"
       ry="0.073149458"
       inkscape:label="white rectangle"
       rx="0.073149458"
       transform="translate(0,-106.50001)" /></g><inkscape:templateinfo><inkscape:name>square</inkscape:name><inkscape:date>2025-05-10</inkscape:date></inkscape:templateinfo></svg>
